<?xml version="1.0" encoding="UTF-8" standalone="no"?>
<!-- Created with Inkscape (http://www.inkscape.org/) -->

<svg
   width="300"
   height="200"
   viewBox="0 0 79.375004 52.916665"
   version="1.1"
   id="svg14077"
   inkscape:version="1.3 (0e150ed6c4, 2023-07-21)"
   sodipodi:docname="basic_sample_input_text_as_outlines_for_readme.svg"
   xmlns:inkscape="http://www.inkscape.org/namespaces/inkscape"
   xmlns:sodipodi="http://sodipodi.sourceforge.net/DTD/sodipodi-0.dtd"
   xmlns="http://www.w3.org/2000/svg"
   xmlns:svg="http://www.w3.org/2000/svg"
   xmlns:rdf="http://www.w3.org/1999/02/22-rdf-syntax-ns#"
   xmlns:cc="http://creativecommons.org/ns#"
   xmlns:dc="http://purl.org/dc/elements/1.1/">
  <defs
     id="defs14071" />
  <sodipodi:namedview
     id="base"
     pagecolor="#ffffff"
     bordercolor="#666666"
     borderopacity="1.0"
     inkscape:pageopacity="0.0"
     inkscape:pageshadow="2"
     inkscape:zoom="2.1873712"
     inkscape:cx="192.46848"
     inkscape:cy="133.26499"
     inkscape:document-units="mm"
     inkscape:current-layer="g46627"
     showgrid="false"
     inkscape:window-width="1340"
     inkscape:window-height="1041"
     inkscape:window-x="576"
     inkscape:window-y="18"
     inkscape:window-maximized="0"
     fit-margin-top="0"
     fit-margin-left="0"
     fit-margin-right="0"
     fit-margin-bottom="0"
     units="px"
     inkscape:showpageshadow="2"
     inkscape:pagecheckerboard="0"
     inkscape:deskcolor="#d1d1d1" />
  <metadata
     id="metadata14074">
    <rdf:RDF>
      <cc:Work
         rdf:about="">
        <dc:format>image/svg+xml</dc:format>
        <dc:type
           rdf:resource="http://purl.org/dc/dcmitype/StillImage" />
      </cc:Work>
    </rdf:RDF>
  </metadata>
  <g
     inkscape:label="Layer 1"
     inkscape:groupmode="layer"
     id="layer1"
     transform="translate(-19.45731,-28.22321)">
    <g
       id="g46627">
      <path
         style="fill:none;fill-rule:evenodd;stroke:#000000;stroke-width:0.52916667;stroke-linecap:butt;stroke-linejoin:miter;stroke-miterlimit:4;stroke-dasharray:none;stroke-dashoffset:0;stroke-opacity:1"
         d="M 28.063687,59.450272 C 48.456818,82.37086 78.20681,44.670842 90.207487,65.78532"
         id="path52644"
         inkscape:connector-curvature="0"
         sodipodi:nodetypes="cc" />
      <g
         id="g52657"
         transform="translate(-1.1475964)"
         style="stroke-width:0.52916667;stroke-miterlimit:4;stroke-dasharray:none">
        <path
           id="path52646"
           style="opacity:1;fill:#fce94f;stroke:#000000;stroke-linecap:round;stroke-linejoin:round;stroke-opacity:0.947589"
           d="m 43.084208,49.520278 -6.034988,-1.196269 -1.981494,5.824587 -1.981494,-5.824588 -6.034988,1.19627 4.053494,-4.628318 -4.053493,-4.628318 6.034987,1.19627 1.981494,-5.824588 1.981494,5.824588 6.034988,-1.19627 -4.053494,4.628318 z" />
        <path
           style="font-weight:bold;font-size:21.1311px;line-height:7.24776px;font-family:'Bitstream Vera Sans';-inkscape-font-specification:'Bitstream Vera Sans Bold';text-align:end;letter-spacing:0px;word-spacing:0px;text-anchor:end;fill:#8ae234;stroke:#4e9a06;stroke-width:0.529167"
           d="m 58.622713,37.606335 v 3.260462 q -1.269104,-0.567485 -2.476301,-0.856387 -1.207197,-0.288902 -2.28026,-0.288902 -1.423873,0 -2.104856,0.392081 -0.680983,0.392081 -0.680983,1.217515 0,0.619075 0.453989,0.969884 0.464306,0.340492 1.671503,0.588122 l 1.692139,0.340491 q 2.569162,0.515896 3.652543,1.568324 1.083382,1.052428 1.083382,2.992197 0,2.548526 -1.516734,3.796994 -1.506417,1.23815 -4.61211,1.23815 -1.465145,0 -2.940608,-0.278583 -1.475462,-0.278584 -2.950925,-0.825434 v -3.353324 q 1.475463,0.784162 2.847746,1.186561 1.382601,0.392081 2.662023,0.392081 1.300058,0 1.991359,-0.433353 0.691301,-0.433352 0.691301,-1.23815 0,-0.722255 -0.474625,-1.114336 -0.464306,-0.39208 -1.867543,-0.701618 l -1.53737,-0.340491 q -2.311214,-0.495261 -3.384278,-1.578642 -1.062746,-1.083382 -1.062746,-2.919971 0,-2.300897 1.485781,-3.539047 1.48578,-1.23815 4.271619,-1.23815 1.269104,0 2.610433,0.19604 1.34133,0.185723 2.775521,0.567486 z m 2.662023,-0.484942 h 3.993035 l 4.085896,11.370347 4.075578,-11.370347 h 3.993035 l -5.70581,15.404654 h -4.735925 z m 32.03714,14.259365 q -1.48578,0.722254 -3.085058,1.083381 -1.599277,0.361127 -3.301734,0.361127 -3.848584,0 -6.097891,-2.146127 -2.249306,-2.156445 -2.249306,-5.839942 0,-3.72477 2.290578,-5.860579 2.290578,-2.135809 6.273295,-2.135809 1.53737,0 2.940608,0.288901 1.413555,0.288902 2.662023,0.856388 v 3.188237 q -1.28974,-0.732572 -2.569162,-1.093699 -1.269104,-0.361128 -2.548526,-0.361128 -2.373122,0 -3.662862,1.331012 -1.279422,1.320694 -1.279422,3.786677 0,2.445347 1.23815,3.776358 1.238151,1.331012 3.518411,1.331012 0.619075,0 1.145289,-0.07223 0.536532,-0.08254 0.959567,-0.24763 v -2.992196 h -2.424711 v -2.662024 h 6.190751 z"
           id="text52650"
           aria-label="SVG" />
      </g>
      <path
         style="fill:none;fill-rule:evenodd;stroke:#000000;stroke-width:0.52916673;stroke-linecap:butt;stroke-linejoin:miter;stroke-miterlimit:4;stroke-dasharray:4.23333384,4.23333384;stroke-dashoffset:0;stroke-opacity:1"
         d="M 27.39481,74.525293 H 90.894809"
         id="path52652"
         inkscape:connector-curvature="0" />
    </g>
  </g>
</svg>
