<svg height="52.916666666666664mm" version="1.1" viewBox="0 0 79.37499999999999 52.916666666666664" width="79.37499999999999mm" xmlns="http://www.w3.org/2000/svg" xmlns:xlink="http://www.w3.org/1999/xlink"><defs><rect height="1.3229166666666667" id="start" style="fill:white;stroke:black;stroke-width:0.26458333333333334" width="1.3229166666666667" x="-0.5291666666666667" y="-0.5291666666666667" /><use id="end" xlink:href="#start" /><circle id="vertex" r="0.5291666666666667" style="fill:black;stroke:none" /></defs><path d="M8.51924789464308,31.191936928429957 L12.40623943280425,34.804240616659335 L16.471007905904216,37.17210397199117 L20.674248979590715,38.47028396424175 L24.976658319511483,38.87353756322728 L33.721764460646746,37.69429346066811 L42.39189165449186,35.0324274228436 L50.67260522622866,32.285995208283595 L58.249470501039056,30.853052575517964 L61.67569919121616,31.06603227684863 L64.80805280410488,32.131655283076604 L67.60722700535288,34.2246785640181 L70.03391746060798,37.51985908948938" style="fill:none;stroke:#000000;stroke-opacity:1.0;stroke-width:0.265" /><use transform="translate(12.40623943280425, 34.804240616659335)" xlink:href="#vertex" /><use transform="translate(16.471007905904216, 37.17210397199117)" xlink:href="#vertex" /><use transform="translate(20.674248979590715, 38.47028396424175)" xlink:href="#vertex" /><use transform="translate(24.976658319511483, 38.87353756322728)" xlink:href="#vertex" /><use transform="translate(33.721764460646746, 37.69429346066811)" xlink:href="#vertex" /><use transform="translate(42.39189165449186, 35.0324274228436)" xlink:href="#vertex" /><use transform="translate(50.67260522622866, 32.285995208283595)" xlink:href="#vertex" /><use transform="translate(58.249470501039056, 30.853052575517964)" xlink:href="#vertex" /><use transform="translate(61.67569919121616, 31.06603227684863)" xlink:href="#vertex" /><use transform="translate(64.80805280410488, 32.131655283076604)" xlink:href="#vertex" /><use transform="translate(67.60722700535288, 34.2246785640181)" xlink:href="#vertex" /><use transform="translate(8.51924789464308, 31.191936928429957)" xlink:href="#start" /><use transform="translate(70.03391746060798, 37.51985908948938)" xlink:href="#end" /><path d="M22.25172599676342,21.27311246304516 L16.27783491423284,20.07818905983047 L14.316401132311846,25.89622440168085 L12.354967350390856,20.07818806095531 L6.381076267860278,21.27311246304516 L10.393533568469852,16.65000052440946 L6.381077257736492,12.026888585773769 L12.354967350390856,13.221812987863625 L14.316401132311846,7.4037766471380655 L16.27783491423284,13.221812987863625 L22.25172599676342,12.026888585773769 L18.239268696153832,16.65000052440946 L22.25172599676342,21.27311246304516" style="fill:none;stroke:#000000;stroke-opacity:1.0;stroke-width:0.265" /><use transform="translate(16.27783491423284, 20.07818905983047)" xlink:href="#vertex" /><use transform="translate(14.316401132311846, 25.89622440168085)" xlink:href="#vertex" /><use transform="translate(12.354967350390856, 20.07818806095531)" xlink:href="#vertex" /><use transform="translate(6.381076267860278, 21.27311246304516)" xlink:href="#vertex" /><use transform="translate(10.393533568469852, 16.65000052440946)" xlink:href="#vertex" /><use transform="translate(6.381077257736492, 12.026888585773769)" xlink:href="#vertex" /><use transform="translate(12.354967350390856, 13.221812987863625)" xlink:href="#vertex" /><use transform="translate(14.316401132311846, 7.4037766471380655)" xlink:href="#vertex" /><use transform="translate(16.27783491423284, 13.221812987863625)" xlink:href="#vertex" /><use transform="translate(22.25172599676342, 12.026888585773769)" xlink:href="#vertex" /><use transform="translate(18.239268696153832, 16.65000052440946)" xlink:href="#vertex" /><use transform="translate(22.25172599676342, 21.27311246304516)" xlink:href="#vertex" /><path d="M37.63256438374984,9.369728397080474 L37.63256438374984,12.628175832012225 L35.18296489462027,11.772338676784706 L32.926195785555585,11.483761601322625 L30.842647187396686,11.874577412091268 L30.16774085716952,13.089899152751537 L30.28131468271623,13.641081366884102 L30.4232819646496,13.865037790090916 L30.622036159356323,14.054571090724751 L32.272533480250836,14.646566348386955 L33.94590898183102,14.986262791502309 L37.56229568592958,16.554473070156195 L38.63593602239264,19.544131571943286 L38.26171435260567,21.762052523351784 L37.13904934324474,23.33026280200568 L35.247514047269114,24.26277900871313 L32.56668151763798,24.573617744282274 L29.65788425903181,24.294934739978896 L26.736013754319547,23.468779798227477 L26.736013754319547,20.12128572286742 L29.5598349132361,21.300329202612467 L32.19082569208774,21.697741060820242 L34.16161754258158,21.26405094169724 L34.844694651625055,20.025643035 L34.38059441485868,18.914209041506076 L32.527461779319694,18.211729989238396 L31.004428607959607,17.872033546123028 L27.659311760562513,16.29557820817023 L26.602012981732074,13.380125240073392 L26.969698028466002,11.34689361696062 L28.072753168667774,9.844643812698049 L29.865422040966067,8.917074641569956 L32.30194828398955,8.607884917860591 L34.88718270146986,8.799170293595461 L37.63256438374984,9.369728397080474" style="fill:none;stroke:#000000;stroke-opacity:1.0;stroke-width:0.265" /><use transform="translate(37.63256438374984, 12.628175832012225)" xlink:href="#vertex" /><use transform="translate(35.18296489462027, 11.772338676784706)" xlink:href="#vertex" /><use transform="translate(32.926195785555585, 11.483761601322625)" xlink:href="#vertex" /><use transform="translate(30.842647187396686, 11.874577412091268)" xlink:href="#vertex" /><use transform="translate(30.16774085716952, 13.089899152751537)" xlink:href="#vertex" /><use transform="translate(30.28131468271623, 13.641081366884102)" xlink:href="#vertex" /><use transform="translate(30.4232819646496, 13.865037790090916)" xlink:href="#vertex" /><use transform="translate(30.622036159356323, 14.054571090724751)" xlink:href="#vertex" /><use transform="translate(32.272533480250836, 14.646566348386955)" xlink:href="#vertex" /><use transform="translate(33.94590898183102, 14.986262791502309)" xlink:href="#vertex" /><use transform="translate(37.56229568592958, 16.554473070156195)" xlink:href="#vertex" /><use transform="translate(38.63593602239264, 19.544131571943286)" xlink:href="#vertex" /><use transform="translate(38.26171435260567, 21.762052523351784)" xlink:href="#vertex" /><use transform="translate(37.13904934324474, 23.33026280200568)" xlink:href="#vertex" /><use transform="translate(35.247514047269114, 24.26277900871313)" xlink:href="#vertex" /><use transform="translate(32.56668151763798, 24.573617744282274)" xlink:href="#vertex" /><use transform="translate(29.65788425903181, 24.294934739978896)" xlink:href="#vertex" /><use transform="translate(26.736013754319547, 23.468779798227477)" xlink:href="#vertex" /><use transform="translate(26.736013754319547, 20.12128572286742)" xlink:href="#vertex" /><use transform="translate(29.5598349132361, 21.300329202612467)" xlink:href="#vertex" /><use transform="translate(32.19082569208774, 21.697741060820242)" xlink:href="#vertex" /><use transform="translate(34.16161754258158, 21.26405094169724)" xlink:href="#vertex" /><use transform="translate(34.844694651625055, 20.025643035)" xlink:href="#vertex" /><use transform="translate(34.38059441485868, 18.914209041506076)" xlink:href="#vertex" /><use transform="translate(32.527461779319694, 18.211729989238396)" xlink:href="#vertex" /><use transform="translate(31.004428607959607, 17.872033546123028)" xlink:href="#vertex" /><use transform="translate(27.659311760562513, 16.29557820817023)" xlink:href="#vertex" /><use transform="translate(26.602012981732074, 13.380125240073392)" xlink:href="#vertex" /><use transform="translate(26.969698028466002, 11.34689361696062)" xlink:href="#vertex" /><use transform="translate(28.072753168667774, 9.844643812698049)" xlink:href="#vertex" /><use transform="translate(29.865422040966067, 8.917074641569956)" xlink:href="#vertex" /><use transform="translate(32.30194828398955, 8.607884917860591)" xlink:href="#vertex" /><use transform="translate(34.88718270146986, 8.799170293595461)" xlink:href="#vertex" /><use transform="translate(37.63256438374984, 9.369728397080474)" xlink:href="#vertex" /><path d="M40.26682347412801,8.884918910304183 L44.22148042122179,8.884918910304183 L48.26438177953171,20.243312600491393 L52.300746514788585,8.884918910304183 L56.25213515035583,8.884918910304183 L50.604492832522745,24.273497585801703 L45.914465791961106,24.273497585801703 L40.26682347412801,8.884918910304183" style="fill:none;stroke:#000000;stroke-opacity:1.0;stroke-width:0.265" /><use transform="translate(44.22148042122179, 8.884918910304183)" xlink:href="#vertex" /><use transform="translate(48.26438177953171, 20.243312600491393)" xlink:href="#vertex" /><use transform="translate(52.300746514788585, 8.884918910304183)" xlink:href="#vertex" /><use transform="translate(56.25213515035583, 8.884918910304183)" xlink:href="#vertex" /><use transform="translate(50.604492832522745, 24.273497585801703)" xlink:href="#vertex" /><use transform="translate(45.914465791961106, 24.273497585801703)" xlink:href="#vertex" /><use transform="translate(40.26682347412801, 8.884918910304183)" xlink:href="#vertex" /><path d="M71.97925021598829,23.129083355112126 L68.92664725021507,24.212484146989738 L65.65833572369128,24.573617744282274 L62.243767256355554,24.03603987799293 L59.62176433420185,22.42330627912488 L57.95247422202983,19.891248568427656 L57.396044184639166,16.59569836665078 L57.962687695550215,13.272114963257593 L59.66261822828339,10.741706264420152 L62.348761764145124,9.141340254500484 L65.87404428444184,8.607884917860591 L68.7877440103378,8.896461993322674 L71.41710063342619,9.752299148550193 L71.41710063342619,12.934892037931917 L68.88089088884374,11.84489519861517 L66.35121776731432,11.483761601322625 L64.27338871432684,11.814800732174119 L62.733196907452495,12.807918124728594 L61.77966701958918,14.416941446912135 L61.46182372363474,16.59569836665078 L61.76822792924635,18.7587896737215 L62.68744054608116,20.366988489975135 L64.17043690124132,21.36505291810896 L66.168192321829,21.697741060820242 L66.76057378601142,21.67836517146778 L67.30883304458578,21.62023750341043 L67.8080676302623,21.52088453885848 L68.25337507575117,21.37783276002227 L68.25337507575117,18.38982327009499 L65.85116610375617,18.38982327009499 L65.85116610375617,15.728318128404776 L71.97925021598829,15.728318128404776 L71.97925021598829,23.129083355112126" style="fill:none;stroke:#000000;stroke-opacity:1.0;stroke-width:0.265" /><use transform="translate(68.92664725021507, 24.212484146989738)" xlink:href="#vertex" /><use transform="translate(65.65833572369128, 24.573617744282274)" xlink:href="#vertex" /><use transform="translate(62.243767256355554, 24.03603987799293)" xlink:href="#vertex" /><use transform="translate(59.62176433420185, 22.42330627912488)" xlink:href="#vertex" /><use transform="translate(57.95247422202983, 19.891248568427656)" xlink:href="#vertex" /><use transform="translate(57.396044184639166, 16.59569836665078)" xlink:href="#vertex" /><use transform="translate(57.962687695550215, 13.272114963257593)" xlink:href="#vertex" /><use transform="translate(59.66261822828339, 10.741706264420152)" xlink:href="#vertex" /><use transform="translate(62.348761764145124, 9.141340254500484)" xlink:href="#vertex" /><use transform="translate(65.87404428444184, 8.607884917860591)" xlink:href="#vertex" /><use transform="translate(68.7877440103378, 8.896461993322674)" xlink:href="#vertex" /><use transform="translate(71.41710063342619, 9.752299148550193)" xlink:href="#vertex" /><use transform="translate(71.41710063342619, 12.934892037931917)" xlink:href="#vertex" /><use transform="translate(68.88089088884374, 11.84489519861517)" xlink:href="#vertex" /><use transform="translate(66.35121776731432, 11.483761601322625)" xlink:href="#vertex" /><use transform="translate(64.27338871432684, 11.814800732174119)" xlink:href="#vertex" /><use transform="translate(62.733196907452495, 12.807918124728594)" xlink:href="#vertex" /><use transform="translate(61.77966701958918, 14.416941446912135)" xlink:href="#vertex" /><use transform="translate(61.46182372363474, 16.59569836665078)" xlink:href="#vertex" /><use transform="translate(61.76822792924635, 18.7587896737215)" xlink:href="#vertex" /><use transform="translate(62.68744054608116, 20.366988489975135)" xlink:href="#vertex" /><use transform="translate(64.17043690124132, 21.36505291810896)" xlink:href="#vertex" /><use transform="translate(66.168192321829, 21.697741060820242)" xlink:href="#vertex" /><use transform="translate(66.76057378601142, 21.67836517146778)" xlink:href="#vertex" /><use transform="translate(67.30883304458578, 21.62023750341043)" xlink:href="#vertex" /><use transform="translate(67.8080676302623, 21.52088453885848)" xlink:href="#vertex" /><use transform="translate(68.25337507575117, 21.37783276002227)" xlink:href="#vertex" /><use transform="translate(68.25337507575117, 18.38982327009499)" xlink:href="#vertex" /><use transform="translate(65.85116610375617, 18.38982327009499)" xlink:href="#vertex" /><use transform="translate(65.85116610375617, 15.728318128404776)" xlink:href="#vertex" /><use transform="translate(71.97925021598829, 15.728318128404776)" xlink:href="#vertex" /><use transform="translate(71.97925021598829, 23.129083355112126)" xlink:href="#vertex" /><path d="M7.857142461192369,46.25000112373456 L12.047618942032251,46.25000112373456" style="fill:none;stroke:#000000;stroke-opacity:1.0;stroke-width:0.265" /><use transform="translate(7.857142461192369, 46.25000112373456)" xlink:href="#start" /><use transform="translate(12.047618942032251, 46.25000112373456)" xlink:href="#end" /><path d="M16.23809542287213,46.25000112373456 L20.42857190371201,46.25000112373456" style="fill:none;stroke:#000000;stroke-opacity:1.0;stroke-width:0.265" /><use transform="translate(16.23809542287213, 46.25000112373456)" xlink:href="#start" /><use transform="translate(20.42857190371201, 46.25000112373456)" xlink:href="#end" /><path d="M24.619048384551892,46.25000112373456 L28.80952486539177,46.25000112373456" style="fill:none;stroke:#000000;stroke-opacity:1.0;stroke-width:0.265" /><use transform="translate(24.619048384551892, 46.25000112373456)" xlink:href="#start" /><use transform="translate(28.80952486539177, 46.25000112373456)" xlink:href="#end" /><path d="M33.00000134623165,46.25000112373456 L37.19047782707153,46.25000112373456" style="fill:none;stroke:#000000;stroke-opacity:1.0;stroke-width:0.265" /><use transform="translate(33.00000134623165, 46.25000112373456)" xlink:href="#start" /><use transform="translate(37.19047782707153, 46.25000112373456)" xlink:href="#end" /><path d="M41.38095430791141,46.25000112373456 L45.5714307887513,46.25000112373456" style="fill:none;stroke:#000000;stroke-opacity:1.0;stroke-width:0.265" /><use transform="translate(41.38095430791141, 46.25000112373456)" xlink:href="#start" /><use transform="translate(45.5714307887513, 46.25000112373456)" xlink:href="#end" /><path d="M49.76190726959118,46.25000112373456 L53.95238375043107,46.25000112373456" style="fill:none;stroke:#000000;stroke-opacity:1.0;stroke-width:0.265" /><use transform="translate(49.76190726959118, 46.25000112373456)" xlink:href="#start" /><use transform="translate(53.95238375043107, 46.25000112373456)" xlink:href="#end" /><path d="M58.14286023127094,46.25000112373456 L62.33333671211083,46.25000112373456" style="fill:none;stroke:#000000;stroke-opacity:1.0;stroke-width:0.265" /><use transform="translate(58.14286023127094, 46.25000112373456)" xlink:href="#start" /><use transform="translate(62.33333671211083, 46.25000112373456)" xlink:href="#end" /><path d="M66.5238131929507,46.25000112373456 L70.71428116085514,46.25000112373456" style="fill:none;stroke:#000000;stroke-opacity:1.0;stroke-width:0.265" /><use transform="translate(66.5238131929507, 46.25000112373456)" xlink:href="#start" /><use transform="translate(70.71428116085514, 46.25000112373456)" xlink:href="#end" /></svg>
