<svg height="52.916666666666664mm" version="1.1" viewBox="0 0 39.68749999999999 52.916666666666664" width="39.68749999999999mm" xmlns="http://www.w3.org/2000/svg" xmlns:xlink="http://www.w3.org/1999/xlink"><defs><rect height="1.3229166666666667" id="start" style="fill:white;stroke:black;stroke-width:0.26458333333333334" width="1.3229166666666667" x="-0.5291666666666667" y="-0.5291666666666667" /><use id="end" xlink:href="#start" /><circle id="vertex" r="0.5291666666666667" style="fill:black;stroke:none" /></defs><path d="M12.183838176562482,6.413675616178761 L8.541977578986955,7.09132997964819 L5.485675603871464,9.109818664876183 L3.5016330644846327,12.447109465656997 L3.0638030873359057,14.60342059494042 L3.076550774095079,17.081170175784887 L3.980010385702233,20.32537610375201 L5.93328919115708,24.502346089837676 L11.546492838601932,33.97130102586776 L19.499803464576832,45.586330279884436 L27.673313852683396,33.535999471999986 L33.31415246881437,24.01263184173644 L35.18841156644028,19.992098351572007 L35.92344726055069,17.081170175784887 L35.25090009444283,12.936854253522977 L33.29445727020057,9.545201658116593 L30.37578585822811,7.254659681642831 L26.816552928929607,6.413675616178761 L24.69614184484009,6.666980731637192 L22.71822173703448,7.394535965182239 L19.50019555274604,10.115381307571074 L16.282168999953672,7.394535596678292 L14.30424912246303,6.6669803170702515 L12.183838176562482,6.413675616178761" style="fill:none;stroke:#000000;stroke-opacity:1.0;stroke-width:0.265" /><use transform="translate(8.541977578986955, 7.09132997964819)" xlink:href="#vertex" /><use transform="translate(5.485675603871464, 9.109818664876183)" xlink:href="#vertex" /><use transform="translate(3.5016330644846327, 12.447109465656997)" xlink:href="#vertex" /><use transform="translate(3.0638030873359057, 14.60342059494042)" xlink:href="#vertex" /><use transform="translate(3.076550774095079, 17.081170175784887)" xlink:href="#vertex" /><use transform="translate(3.980010385702233, 20.32537610375201)" xlink:href="#vertex" /><use transform="translate(5.93328919115708, 24.502346089837676)" xlink:href="#vertex" /><use transform="translate(11.546492838601932, 33.97130102586776)" xlink:href="#vertex" /><use transform="translate(19.499803464576832, 45.586330279884436)" xlink:href="#vertex" /><use transform="translate(27.673313852683396, 33.535999471999986)" xlink:href="#vertex" /><use transform="translate(33.31415246881437, 24.01263184173644)" xlink:href="#vertex" /><use transform="translate(35.18841156644028, 19.992098351572007)" xlink:href="#vertex" /><use transform="translate(35.92344726055069, 17.081170175784887)" xlink:href="#vertex" /><use transform="translate(35.25090009444283, 12.936854253522977)" xlink:href="#vertex" /><use transform="translate(33.29445727020057, 9.545201658116593)" xlink:href="#vertex" /><use transform="translate(30.37578585822811, 7.254659681642831)" xlink:href="#vertex" /><use transform="translate(26.816552928929607, 6.413675616178761)" xlink:href="#vertex" /><use transform="translate(24.69614184484009, 6.666980731637192)" xlink:href="#vertex" /><use transform="translate(22.71822173703448, 7.394535965182239)" xlink:href="#vertex" /><use transform="translate(19.50019555274604, 10.115381307571074)" xlink:href="#vertex" /><use transform="translate(16.282168999953672, 7.394535596678292)" xlink:href="#vertex" /><use transform="translate(14.30424912246303, 6.6669803170702515)" xlink:href="#vertex" /><use transform="translate(12.183838176562482, 6.413675616178761)" xlink:href="#vertex" /></svg>
