<svg height="52.916666666666664mm" version="1.1" viewBox="0 0 39.68749999999999 52.916666666666664" width="39.68749999999999mm" xmlns="http://www.w3.org/2000/svg" xmlns:xlink="http://www.w3.org/1999/xlink"><defs><rect height="1.3229166666666667" id="start" style="fill:white;stroke:black;stroke-width:0.26458333333333334" width="1.3229166666666667" x="-0.5291666666666667" y="-0.5291666666666667" /><use id="end" xlink:href="#start" /><circle id="vertex" r="0.5291666666666667" style="fill:black;stroke:none" /></defs><path d="M12.371281840817293,6.512347548735352 L11.418094793300734,6.555506966229053 L10.478903110039525,6.684806440879726 L8.673392618663682,7.2004273639504675 L7.016523931450767,8.056413922544527 L5.570070613161793,9.249969721258884 L4.945053956351609,9.972462212097724 L4.395806228557797,10.7782983646905 L3.9300491253754757,11.667128629611831 L3.5555043423997805,12.638603457436325 L3.2798935752258362,13.69237329873863 L3.1109385194487658,14.828088604093342 L3.0563608706637044,16.045399824075094 L3.123882324465771,17.343957409258504 L3.426424777204284,18.845920678798684 L4.041241314713034,20.638074197655886 L4.922550416813897,22.667006285112407 L6.024570563328729,24.879305260450572 L8.707617908887759,29.64035715190101 L11.724131189965043,34.49393642626572 L17.29254691297401,42.76950334077176 L19.79980044095494,46.287658438036495 L22.390886852900195,42.6037539029529 L28.09905714272468,34.05193792541538 L31.15403829839886,29.122390158717025 L33.826677891411514,24.382056946993927 L34.89861829648941,22.229324175871927 L35.72977174438551,20.299669095442347 L36.27173771292767,18.65168305635468 L36.47611567994377,17.343957409258504 L36.445470960346334,16.239639869144664 L36.3180381316894,15.166502750775676 L36.09892056576306,14.130074304458544 L35.79322163435733,13.135882780500248 L34.94249316226806,11.296323500888144 L33.80667968974211,9.69205091439531 L32.42660819110006,8.367291023477675 L30.843105640662387,7.3662698305911825 L29.98782615049537,7.000981871677095 L29.096999012749645,6.733213338191769 L28.175727599215282,6.5684924804421945 L27.22911528168237,6.512347548735363 L26.13943717295355,6.578264212169746 L25.07608248860686,6.7695496659700725 L24.048898590547626,7.081221688207768 L23.067732840681174,7.508298056954271 L22.14243260091284,8.045796550281 L21.282845233147953,8.688734946259371 L20.498818099291842,9.432131022960817 L19.80019856124984,10.271002558456775 L19.101578736731465,9.432130982035625 L18.317551468406855,8.68873480594441 L17.457964083102592,8.045796287190445 L16.532663907645272,7.508297682781034 L15.5514982688615,7.081221249723507 L14.524314493577847,6.769549245025172 L13.46095990862091,6.578263925693353 L12.371281840817293,6.512347548735352" style="fill:none;stroke:#000000;stroke-opacity:1.0;stroke-width:0.265" /><use transform="translate(11.418094793300734, 6.555506966229053)" xlink:href="#vertex" /><use transform="translate(10.478903110039525, 6.684806440879726)" xlink:href="#vertex" /><use transform="translate(8.673392618663682, 7.2004273639504675)" xlink:href="#vertex" /><use transform="translate(7.016523931450767, 8.056413922544527)" xlink:href="#vertex" /><use transform="translate(5.570070613161793, 9.249969721258884)" xlink:href="#vertex" /><use transform="translate(4.945053956351609, 9.972462212097724)" xlink:href="#vertex" /><use transform="translate(4.395806228557797, 10.7782983646905)" xlink:href="#vertex" /><use transform="translate(3.9300491253754757, 11.667128629611831)" xlink:href="#vertex" /><use transform="translate(3.5555043423997805, 12.638603457436325)" xlink:href="#vertex" /><use transform="translate(3.2798935752258362, 13.69237329873863)" xlink:href="#vertex" /><use transform="translate(3.1109385194487658, 14.828088604093342)" xlink:href="#vertex" /><use transform="translate(3.0563608706637044, 16.045399824075094)" xlink:href="#vertex" /><use transform="translate(3.123882324465771, 17.343957409258504)" xlink:href="#vertex" /><use transform="translate(3.426424777204284, 18.845920678798684)" xlink:href="#vertex" /><use transform="translate(4.041241314713034, 20.638074197655886)" xlink:href="#vertex" /><use transform="translate(4.922550416813897, 22.667006285112407)" xlink:href="#vertex" /><use transform="translate(6.024570563328729, 24.879305260450572)" xlink:href="#vertex" /><use transform="translate(8.707617908887759, 29.64035715190101)" xlink:href="#vertex" /><use transform="translate(11.724131189965043, 34.49393642626572)" xlink:href="#vertex" /><use transform="translate(17.29254691297401, 42.76950334077176)" xlink:href="#vertex" /><use transform="translate(19.79980044095494, 46.287658438036495)" xlink:href="#vertex" /><use transform="translate(22.390886852900195, 42.6037539029529)" xlink:href="#vertex" /><use transform="translate(28.09905714272468, 34.05193792541538)" xlink:href="#vertex" /><use transform="translate(31.15403829839886, 29.122390158717025)" xlink:href="#vertex" /><use transform="translate(33.826677891411514, 24.382056946993927)" xlink:href="#vertex" /><use transform="translate(34.89861829648941, 22.229324175871927)" xlink:href="#vertex" /><use transform="translate(35.72977174438551, 20.299669095442347)" xlink:href="#vertex" /><use transform="translate(36.27173771292767, 18.65168305635468)" xlink:href="#vertex" /><use transform="translate(36.47611567994377, 17.343957409258504)" xlink:href="#vertex" /><use transform="translate(36.445470960346334, 16.239639869144664)" xlink:href="#vertex" /><use transform="translate(36.3180381316894, 15.166502750775676)" xlink:href="#vertex" /><use transform="translate(36.09892056576306, 14.130074304458544)" xlink:href="#vertex" /><use transform="translate(35.79322163435733, 13.135882780500248)" xlink:href="#vertex" /><use transform="translate(34.94249316226806, 11.296323500888144)" xlink:href="#vertex" /><use transform="translate(33.80667968974211, 9.69205091439531)" xlink:href="#vertex" /><use transform="translate(32.42660819110006, 8.367291023477675)" xlink:href="#vertex" /><use transform="translate(30.843105640662387, 7.3662698305911825)" xlink:href="#vertex" /><use transform="translate(29.98782615049537, 7.000981871677095)" xlink:href="#vertex" /><use transform="translate(29.096999012749645, 6.733213338191769)" xlink:href="#vertex" /><use transform="translate(28.175727599215282, 6.5684924804421945)" xlink:href="#vertex" /><use transform="translate(27.22911528168237, 6.512347548735363)" xlink:href="#vertex" /><use transform="translate(26.13943717295355, 6.578264212169746)" xlink:href="#vertex" /><use transform="translate(25.07608248860686, 6.7695496659700725)" xlink:href="#vertex" /><use transform="translate(24.048898590547626, 7.081221688207768)" xlink:href="#vertex" /><use transform="translate(23.067732840681174, 7.508298056954271)" xlink:href="#vertex" /><use transform="translate(22.14243260091284, 8.045796550281)" xlink:href="#vertex" /><use transform="translate(21.282845233147953, 8.688734946259371)" xlink:href="#vertex" /><use transform="translate(20.498818099291842, 9.432131022960817)" xlink:href="#vertex" /><use transform="translate(19.80019856124984, 10.271002558456775)" xlink:href="#vertex" /><use transform="translate(19.101578736731465, 9.432130982035625)" xlink:href="#vertex" /><use transform="translate(18.317551468406855, 8.68873480594441)" xlink:href="#vertex" /><use transform="translate(17.457964083102592, 8.045796287190445)" xlink:href="#vertex" /><use transform="translate(16.532663907645272, 7.508297682781034)" xlink:href="#vertex" /><use transform="translate(15.5514982688615, 7.081221249723507)" xlink:href="#vertex" /><use transform="translate(14.524314493577847, 6.769549245025172)" xlink:href="#vertex" /><use transform="translate(13.46095990862091, 6.578263925693353)" xlink:href="#vertex" /><use transform="translate(12.371281840817293, 6.512347548735352)" xlink:href="#vertex" /></svg>
