<svg xmlns="http://www.w3.org/2000/svg" xmlns:xlink="http://www.w3.org/1999/xlink" version="1.1" width="149.9999645833333mm" height="149.9999645833333mm" viewBox="0 0 149.9999645833333 149.9999645833333"><defs><rect id="start" style="fill:white;stroke:black;stroke-width:0.26458333333333334" x="-0.5291666666666667" y="-0.5291666666666667" width="1.3229166666666667" height="1.3229166666666667" /><use id="end" xlink:href="#start" /><circle id="vertex" style="fill:black;stroke:none" r="0.5291666666666667" /></defs><path d="M12.302049110206042,60.23427589698182 L12.302049110206042,12.346175623402582" style="&#10;                fill:none;&#10;                stroke:#ec008c;&#10;                stroke-opacity:1.0;&#10;                stroke-width:0.5284612358866808&#10;            " /><use xlink:href="#start" transform="translate(12.302049110206042, 60.23427589698182)" /><use xlink:href="#end" transform="translate(12.302049110206042, 12.346175623402582)" /><path d="M60.18988515316734,12.346175623402582 L60.18988515316734,60.23427589698182" style="&#10;                fill:none;&#10;                stroke:#ec008c;&#10;                stroke-opacity:1.0;&#10;                stroke-width:0.5284612358866808&#10;            " /><use xlink:href="#start" transform="translate(60.18988515316734, 12.346175623402582)" /><use xlink:href="#end" transform="translate(60.18988515316734, 60.23427589698182)" /><path d="M107.55560149507261,12.346175623402582 L113.1993032637244,29.715639524526 L131.46265934535015,29.715639524526 L116.68714742057648,40.45080107032803 L122.3308491892283,57.82026497145146 L107.55560149507261,47.08510342564943 L92.78008957029895,57.82026497145146 L98.42379133895076,40.45080107032803 L83.64854364479504,29.715639524526 L101.9118997264208,29.715639524526 L107.55560149507261,12.346175623402582" style="&#10;                fill:none;&#10;                stroke:#8dc63f;&#10;                stroke-opacity:1.0;&#10;                stroke-width:0.5284612358866808&#10;            " /><use xlink:href="#vertex" transform="translate(113.1993032637244, 29.715639524526)" /><use xlink:href="#vertex" transform="translate(131.46265934535015, 29.715639524526)" /><use xlink:href="#vertex" transform="translate(116.68714742057648, 40.45080107032803)" /><use xlink:href="#vertex" transform="translate(122.3308491892283, 57.82026497145146)" /><use xlink:href="#vertex" transform="translate(107.55560149507261, 47.08510342564943)" /><use xlink:href="#vertex" transform="translate(92.78008957029895, 57.82026497145146)" /><use xlink:href="#vertex" transform="translate(98.42379133895076, 40.45080107032803)" /><use xlink:href="#vertex" transform="translate(83.64854364479504, 29.715639524526)" /><use xlink:href="#vertex" transform="translate(101.9118997264208, 29.715639524526)" /><use xlink:href="#vertex" transform="translate(107.55560149507261, 12.346175623402582)" /><path d="M92.00008078613021,79.60634365149782 L45.38477939918404,79.60634365149782 L22.076996590401976,101.81360593654588 L45.38477939918404,138.1096447703328 L92.00008078613021,138.1096447703328 L115.30786359491226,101.81360593654588" style="&#10;                fill:none;&#10;                stroke:#ef4136;&#10;                stroke-opacity:1.0;&#10;                stroke-width:0.5284612358866808&#10;            " /><use xlink:href="#vertex" transform="translate(45.38477939918404, 79.60634365149782)" /><use xlink:href="#vertex" transform="translate(22.076996590401976, 101.81360593654588)" /><use xlink:href="#vertex" transform="translate(45.38477939918404, 138.1096447703328)" /><use xlink:href="#vertex" transform="translate(92.00008078613021, 138.1096447703328)" /><use xlink:href="#start" transform="translate(92.00008078613021, 79.60634365149782)" /><use xlink:href="#end" transform="translate(115.30786359491226, 101.81360593654588)" /><path d="M92.00008078613021,79.60634365149782 L94.29571639482195,81.79364470683278" style="&#10;                fill:none;&#10;                stroke:#29abe2;&#10;                stroke-opacity:1.0;&#10;                stroke-width:0.5284612358866808&#10;            " /><use xlink:href="#start" transform="translate(92.00008078613021, 79.60634365149782)" /><use xlink:href="#end" transform="translate(94.29571639482195, 81.79364470683278)" /><path d="M98.03907155922525,85.36022958783201 L101.78242197715036,88.92677041639804" style="&#10;                fill:none;&#10;                stroke:#29abe2;&#10;                stroke-opacity:1.0;&#10;                stroke-width:0.5284612358866808&#10;            " /><use xlink:href="#start" transform="translate(98.03907155922525, 85.36022958783201)" /><use xlink:href="#end" transform="translate(101.78242197715036, 88.92677041639804)" /><path d="M105.5257723950755,92.49331124496408 L109.26912281300064,96.05985207353012" style="&#10;                fill:none;&#10;                stroke:#29abe2;&#10;                stroke-opacity:1.0;&#10;                stroke-width:0.5284612358866808&#10;            " /><use xlink:href="#start" transform="translate(105.5257723950755, 92.49331124496408)" /><use xlink:href="#end" transform="translate(109.26912281300064, 96.05985207353012)" /><path d="M113.01222798622051,99.6263048812109 L115.30786359491226,101.81360593654588" style="&#10;                fill:none;&#10;                stroke:#29abe2;&#10;                stroke-opacity:1.0;&#10;                stroke-width:0.5284612358866808&#10;            " /><use xlink:href="#start" transform="translate(113.01222798622051, 99.6263048812109)" /><use xlink:href="#end" transform="translate(115.30786359491226, 101.81360593654588)" /></svg>
